<?xml version="1.0" encoding="UTF-8" standalone="no"?>
<!DOCTYPE svg PUBLIC "-//W3C//DTD SVG 1.1//EN"
 "http://www.w3.org/Graphics/SVG/1.1/DTD/svg11.dtd">
<!-- Generated by graphviz version 2.36.0 (20140111.2315)
 -->
<!-- Title: G Pages: 1 -->
<svg width="182pt" height="257pt"
 viewBox="0.00 0.00 182.00 257.00" xmlns="http://www.w3.org/2000/svg" xmlns:xlink="http://www.w3.org/1999/xlink">
<g id="graph0" class="graph" transform="scale(1 1) rotate(0) translate(4 253)">
<title>G</title>
<polygon fill="white" stroke="none" points="-4,4 -4,-253 178,-253 178,4 -4,4"/>
<g id="clust1" class="cluster"><title>cluster_Global</title>
<path fill="none" stroke="gray" d="M20,-8C20,-8 154,-8 154,-8 160,-8 166,-14 166,-20 166,-20 166,-229 166,-229 166,-235 160,-241 154,-241 154,-241 20,-241 20,-241 14,-241 8,-235 8,-229 8,-229 8,-20 8,-20 8,-14 14,-8 20,-8"/>
<text text-anchor="middle" x="87" y="-228.2" font-family="Times,serif" font-size="11.00" fill="gray">Global</text>
</g>
<!-- \\Handymail -->
<g id="node1" class="node"><title>\\Handymail</title>
<polygon fill="none" stroke="black" points="124.911,-214 49.0892,-214 49.0892,-178 124.911,-178 124.911,-214"/>
<text text-anchor="middle" x="87" y="-192.7" font-family="Courier,monospace" font-size="11.00">Handymail</text>
</g>
<!-- \\Handymail_FormField -->
<g id="node2" class="node"><title>\\Handymail_FormField</title>
<polygon fill="none" stroke="black" points="157.921,-160 16.079,-160 16.079,-124 157.921,-124 157.921,-160"/>
<text text-anchor="middle" x="87" y="-138.7" font-family="Courier,monospace" font-size="11.00">Handymail_FormField</text>
</g>
<!-- \\Handymail_Secure -->
<g id="node3" class="node"><title>\\Handymail_Secure</title>
<polygon fill="none" stroke="black" points="147.618,-106 26.3822,-106 26.3822,-70 147.618,-70 147.618,-106"/>
<text text-anchor="middle" x="87" y="-84.7" font-family="Courier,monospace" font-size="11.00">Handymail_Secure</text>
</g>
<!-- \\Handymail_Template -->
<g id="node4" class="node"><title>\\Handymail_Template</title>
<polygon fill="none" stroke="black" points="154.319,-52 19.6805,-52 19.6805,-16 154.319,-16 154.319,-52"/>
<text text-anchor="middle" x="87" y="-30.7" font-family="Courier,monospace" font-size="11.00">Handymail_Template</text>
</g>
</g>
</svg>
